<svg width="70" height="70" viewBox="0 0 70 70" fill="none" xmlns="http://www.w3.org/2000/svg">
<path fill-rule="evenodd" clip-rule="evenodd" d="M34.9999 5.8335C46.2757 5.8335 55.4166 14.9743 55.4166 26.2502C55.4166 29.6595 54.5833 32.8719 53.1039 35.6985L34.9999 67.0835L17.3153 36.4597C15.5749 33.4543 14.5833 29.9694 14.5833 26.2502C14.5833 14.9743 23.7241 5.8335 34.9999 5.8335ZM34.9999 11.6668C26.9458 11.6668 20.4166 18.196 20.4166 26.2502C20.4166 28.5661 20.9509 30.7883 21.9619 32.7945L22.4519 33.6894L34.9999 55.4168L47.6365 33.5364C48.9071 31.3424 49.5833 28.8556 49.5833 26.2502C49.5833 18.196 43.0541 11.6668 34.9999 11.6668ZM34.9999 17.5002C39.8324 17.5002 43.7499 21.4177 43.7499 26.2502C43.7499 31.0827 39.8324 35.0002 34.9999 35.0002C30.1674 35.0002 26.2499 31.0827 26.2499 26.2502C26.2499 21.4177 30.1674 17.5002 34.9999 17.5002ZM34.9999 23.3335C33.3891 23.3335 32.0833 24.6393 32.0833 26.2502C32.0833 27.861 33.3891 29.1668 34.9999 29.1668C36.6107 29.1668 37.9166 27.861 37.9166 26.2502C37.9166 24.6393 36.6107 23.3335 34.9999 23.3335Z" fill="white"/>
</svg>
