<svg width="70" height="70" viewBox="0 0 70 70" fill="none" xmlns="http://www.w3.org/2000/svg">
<path d="M41.6458 21.9792C43.458 22.3327 45.2569 23.1319 46.5625 24.4375C47.868 25.7431 48.6672 27.542 49.0208 29.3542M42.875 13.375C46.64 13.7933 50.028 15.6147 52.7083 18.2917C55.3886 20.9686 57.202 24.3605 57.625 28.125M57.6236 46.5051V53.1666C57.634 55.7131 55.3443 57.8395 52.7733 57.6077C30.5835 57.625 13.3751 40.2568 13.3925 18.2159C13.1609 15.6587 15.2768 13.3776 17.8201 13.3752H24.4948C25.5745 13.3646 26.6213 13.7462 27.44 14.4489C29.7676 16.4467 31.2647 23.2274 30.6887 25.923C30.239 28.0276 28.1175 29.4999 26.6752 30.9394C29.8425 36.4985 34.4545 41.1014 40.0246 44.2624C41.4669 42.823 42.9422 40.7057 45.051 40.2568C47.7561 39.6811 54.5804 41.1803 56.5702 43.5241C57.2758 44.3552 57.6507 45.4161 57.6236 46.5051Z" stroke="white" stroke-width="6" stroke-linecap="round" stroke-linejoin="round"/>
</svg>
